<mxfile host="app.diagrams.net" modified="2024-03-07T02:22:01.006Z" agent="Mozilla/5.0 (Windows NT 10.0; Win64; x64) AppleWebKit/537.36 (KHTML, like Gecko) Chrome/122.0.0.0 Safari/537.36" etag="TfjaEN2VJpG9PFJdaDuX" version="24.0.1" type="github">
  <diagram name="第 1 页" id="lzQdF8w5wXEc82dC6Tg3">
    <mxGraphModel dx="1434" dy="790" grid="1" gridSize="10" guides="1" tooltips="1" connect="1" arrows="1" fold="1" page="1" pageScale="1" pageWidth="827" pageHeight="1169" math="0" shadow="0">
      <root>
        <mxCell id="0" />
        <mxCell id="1" parent="0" />
        <mxCell id="aP5eUWCv9s_JMIvqQCnQ-1" value="" style="rounded=0;whiteSpace=wrap;html=1;fillColor=none;" vertex="1" parent="1">
          <mxGeometry x="80" y="80" width="670" height="520" as="geometry" />
        </mxCell>
        <mxCell id="aP5eUWCv9s_JMIvqQCnQ-2" value="" style="rounded=0;whiteSpace=wrap;html=1;" vertex="1" parent="1">
          <mxGeometry x="520" y="170" width="190" height="170" as="geometry" />
        </mxCell>
        <mxCell id="aP5eUWCv9s_JMIvqQCnQ-3" value="可视化物料" style="rounded=0;whiteSpace=wrap;html=1;" vertex="1" parent="1">
          <mxGeometry x="340" y="210" width="120" height="60" as="geometry" />
        </mxCell>
        <mxCell id="aP5eUWCv9s_JMIvqQCnQ-4" value="应用" style="rounded=0;whiteSpace=wrap;html=1;" vertex="1" parent="1">
          <mxGeometry x="520" y="260" width="190" height="40" as="geometry" />
        </mxCell>
        <mxCell id="aP5eUWCv9s_JMIvqQCnQ-5" value="项目" style="rounded=0;whiteSpace=wrap;html=1;" vertex="1" parent="1">
          <mxGeometry x="520" y="300" width="190" height="40" as="geometry" />
        </mxCell>
        <mxCell id="aP5eUWCv9s_JMIvqQCnQ-6" value="组件、区块、模板" style="rounded=0;whiteSpace=wrap;html=1;" vertex="1" parent="1">
          <mxGeometry x="520" y="220" width="190" height="40" as="geometry" />
        </mxCell>
        <mxCell id="aP5eUWCv9s_JMIvqQCnQ-8" value="可视化引擎" style="rounded=0;whiteSpace=wrap;html=1;" vertex="1" parent="1">
          <mxGeometry x="140" y="170" width="140" height="170" as="geometry" />
        </mxCell>
        <mxCell id="aP5eUWCv9s_JMIvqQCnQ-9" value="" style="rounded=0;whiteSpace=wrap;html=1;" vertex="1" parent="1">
          <mxGeometry x="140" y="400" width="570" height="70" as="geometry" />
        </mxCell>
      </root>
    </mxGraphModel>
  </diagram>
</mxfile>
